# xmcd CD database file
#
# Track frame offsets:
#	150
#	20497
#	43610
#	62827
#	69177
#	89432
#	106185
#	121762
#	143577
#	166940
#	194755
#	215190
#	233392
#	248692
#	271022
#	279497
#
# Disc length: 4063 seconds
#
# Revision: 0
# Processed by: cddbd v1.5PL3 Copyright (c) Steve Scherf et al.
# Submitted via: CDex 1.40Release
#
DISCID=d90fdd10
DTITLE=BBOY PARK 2003 - BBOY PARK 2003 雨にぬれた壁．．．
DYEAR=2003
DGENRE=ヒップ ホップ (一般)
TTITLE0=B-BOYイズム - RHYMESTER
TTITLE1=ダウンバイロー - CRAZY-A&KICK THE CAN CREW
TTITLE2=NORINA - ラッパ我リヤ
TTITLE3=BBOY PARK 2003 AUG.17 SCENE 1
TTITLE4=BBOY PARK 2003 DJ BATTLE
TTITLE5=Uh.B... - B.C.T feat.LILy's
TTITLE6=NO NO I DON'T NO  NO NO ALL MIC KNOW - RUDEE KIZZ
TTITLE7=BBOY PARK 2003 AUG.17 SCENE 2
TTITLE8=TOKYO TRIBE 外伝〜エクソダス〜 - 童子-T feat.ZINGI
TTITLE9=BBOY PARK 2003 MC BTTLE
TTITLE10=悟 - 外人二十一瞑想
TTITLE11=BACK AGAIN - RUFF RHYMERS
TTITLE12=独り言 - マサカリ(闇アガリ・アダプタ)
TTITLE13=PUMP IT UP〜未来に繋げB-BOYスタンス B-FRESH feat.MURO,LITTLE,Miss Monday,BOY-KEN,山田マン,CRAZY-A,CAKE-K
TTITLE14=BBOY PARK 2003 AUG.17 SCENE 3
TTITLE15=We Are The Wild
EXTD=YEAR: 2003/12/26
EXTT0=
EXTT1=
EXTT2=
EXTT3=
EXTT4=
EXTT5=
EXTT6=
EXTT7=
EXTT8=
EXTT9=
EXTT10=
EXTT11=
EXTT12=
EXTT13=
EXTT14=
EXTT15=
PLAYORDER=
